<svg width="228.118" height="228.118" xmlns="http://www.w3.org/2000/svg">

 <g>
  <title>background</title>
  <rect fill="none" id="canvas_background" height="402" width="582" y="-1" x="-1"/>
 </g>
 <g>
  <title>Layer 1</title>
  <path fill="#673ab7" id="svg_1" d="m228.118,12.703l-68.674,13.147c-13.634,-6.954 -29.059,-10.88 -45.385,-10.88c-16.326,0 -31.751,3.926 -45.385,10.88l-68.674,-13.147l15.658,83.45c-1.191,6.167 -1.822,12.531 -1.822,19.04c0,55.263 44.96,100.223 100.223,100.223c55.264,0 100.224,-44.96 100.224,-100.223c0,-6.509 -0.631,-12.873 -1.822,-19.04l15.657,-83.45zm-94.089,162.319c-7.911,0 -15.038,-3.259 -19.977,-8.675c-4.939,5.42 -12.059,8.72 -19.961,8.72c-14.878,0 -26.982,-12.362 -26.982,-27.362l15,0c0,7 5.375,12.362 11.982,12.362c6.606,0 11.981,-5.095 11.981,-11.701l-0.107,-10.694c-8.808,-3.291 -15.097,-11.967 -15.097,-21.967l15,0c0,5 3.674,8.19 8.19,8.19s8.191,-3.19 8.191,-8.19l15,0c0,10 -6.288,18.674 -15.096,21.966l-0.107,10.651c0,6.53 5.375,11.68 11.981,11.68s11.981,-5.297 11.981,-12.297l15,0c0.002,15 -12.101,27.317 -26.979,27.317z"/>
  <g id="svg_2"/>
  <g id="svg_3"/>
  <g id="svg_4"/>
  <g id="svg_5"/>
  <g id="svg_6"/>
  <g id="svg_7"/>
  <g id="svg_8"/>
  <g id="svg_9"/>
  <g id="svg_10"/>
  <g id="svg_11"/>
  <g id="svg_12"/>
  <g id="svg_13"/>
  <g id="svg_14"/>
  <g id="svg_15"/>
  <g id="svg_16"/>
 </g>
</svg>